<svg xmlns="http://www.w3.org/2000/svg">
  <symbol viewBox="0 0 24 24" id="chevron-down">
    <path
      fill="none"
      stroke="currentColor"
      stroke-linecap="round"
      stroke-linejoin="round"
      stroke-width="2"
      d="m6 9l6 6l6-6"
    ></path>
  </symbol>
  <symbol viewBox="0 0 24 24" id="chevron-left">
    <path
      fill="none"
      stroke="currentColor"
      stroke-linecap="round"
      stroke-linejoin="round"
      stroke-width="2"
      d="m15 18l-6-6l6-6"
    ></path>
  </symbol>
  <symbol viewBox="0 0 24 24" id="chevron-right">
    <path
      fill="none"
      stroke="currentColor"
      stroke-linecap="round"
      stroke-linejoin="round"
      stroke-width="2"
      d="m9 18l6-6l-6-6"
    ></path>
  </symbol>
  <symbol viewBox="0 0 24 24" id="chevron-up">
    <path
      fill="none"
      stroke="currentColor"
      stroke-linecap="round"
      stroke-linejoin="round"
      stroke-width="2"
      d="m18 15l-6-6l-6 6"
    ></path>
  </symbol>
  <symbol viewBox="0 0 24 24" id="circle-help">
    <g
      fill="none"
      stroke="currentColor"
      stroke-linecap="round"
      stroke-linejoin="round"
      stroke-width="2"
    >
      <circle cx="12" cy="12" r="10"></circle>
      <path d="M9.09 9a3 3 0 0 1 5.83 1c0 2-3 3-3 3m.08 4h.01"></path>
    </g>
  </symbol>
  <symbol viewBox="0 0 24 24" id="hand-metal">
    <g
      fill="none"
      stroke="currentColor"
      stroke-linecap="round"
      stroke-linejoin="round"
      stroke-width="2"
    >
      <path
        d="M18 12.5V10a2 2 0 0 0-2-2v0a2 2 0 0 0-2 2v1.4m0-.4V9a2 2 0 1 0-4 0v2m0-.5V5a2 2 0 1 0-4 0v9"
      ></path>
      <path
        d="m7 15l-1.76-1.76a2 2 0 0 0-2.83 2.82l3.6 3.6C7.5 21.14 9.2 22 12 22h2a8 8 0 0 0 8-8V7a2 2 0 1 0-4 0v5"
      ></path>
    </g>
  </symbol>
  <symbol viewBox="0 0 24 24" id="settings">
    <g
      fill="none"
      stroke="currentColor"
      stroke-linecap="round"
      stroke-linejoin="round"
      stroke-width="2"
    >
      <path
        d="M12.22 2h-.44a2 2 0 0 0-2 2v.18a2 2 0 0 1-1 1.73l-.43.25a2 2 0 0 1-2 0l-.15-.08a2 2 0 0 0-2.73.73l-.22.38a2 2 0 0 0 .73 2.73l.15.1a2 2 0 0 1 1 1.72v.51a2 2 0 0 1-1 1.74l-.15.09a2 2 0 0 0-.73 2.73l.22.38a2 2 0 0 0 2.73.73l.15-.08a2 2 0 0 1 2 0l.43.25a2 2 0 0 1 1 1.73V20a2 2 0 0 0 2 2h.44a2 2 0 0 0 2-2v-.18a2 2 0 0 1 1-1.73l.43-.25a2 2 0 0 1 2 0l.15.08a2 2 0 0 0 2.73-.73l.22-.39a2 2 0 0 0-.73-2.73l-.15-.08a2 2 0 0 1-1-1.74v-.5a2 2 0 0 1 1-1.74l.15-.09a2 2 0 0 0 .73-2.73l-.22-.38a2 2 0 0 0-2.73-.73l-.15.08a2 2 0 0 1-2 0l-.43-.25a2 2 0 0 1-1-1.73V4a2 2 0 0 0-2-2"
      ></path>
      <circle cx="12" cy="12" r="3"></circle>
    </g>
  </symbol>
  <symbol viewBox="0 0 24 24" id="trash">
    <path
      fill="none"
      stroke="currentColor"
      stroke-linecap="round"
      stroke-linejoin="round"
      stroke-width="2"
      d="M3 6h18m-2 0v14c0 1-1 2-2 2H7c-1 0-2-1-2-2V6m3 0V4c0-1 1-2 2-2h4c1 0 2 1 2 2v2m-6 5v6m4-6v6"
    ></path>
  </symbol>
  <symbol viewBox="0 0 24 24" id="user-round">
    <g
      fill="none"
      stroke="currentColor"
      stroke-linecap="round"
      stroke-linejoin="round"
      stroke-width="2"
    >
      <circle cx="12" cy="8" r="5"></circle>
      <path d="M20 21a8 8 0 0 0-16 0"></path>
    </g>
  </symbol>
  <symbol viewBox="0 0 24 24" id="x">
    <path
      fill="none"
      stroke="currentColor"
      stroke-linecap="round"
      stroke-linejoin="round"
      stroke-width="2"
      d="M18 6L6 18M6 6l12 12"
    ></path>
  </symbol>
</svg>
